<svg width="24" height="24" viewBox="0 0 24 24" fill="none" xmlns="http://www.w3.org/2000/svg">
<g opacity="1">
<path d="M15 8.00001H21.54C21.1909 7.07488 20.6485 6.23488 19.949 5.53602L16.465 2.05002C15.7653 1.35135 14.9251 0.809334 14 0.460022V7.00002C14 7.55226 14.4477 8.00001 15 8.00001Z" fill="#2E2E2E"/>
<path d="M21.976 9.99998H15C13.3431 9.99998 12 8.65683 12 6.99998V0.024C11.839 0.0129844 11.678 0 11.515 0H6.99997C4.23992 0.00332812 2.00328 2.23997 2 5.00002V19C2.00328 21.76 4.23992 23.9967 6.99997 24H17C19.76 23.9967 21.9966 21.76 22 19V10.485C22 10.322 21.987 10.161 21.976 9.99998Z" fill="#2E2E2E"/>
</g>
</svg>
