<svg width="28" height="28" viewBox="0 0 28 28" fill="none" xmlns="http://www.w3.org/2000/svg">
<path d="M25.3077 13.3718C25.312 15.0301 24.9246 16.666 24.1769 18.1462C23.2905 19.9199 21.9276 21.4118 20.2412 22.4548C18.5547 23.4977 16.6111 24.0506 14.6282 24.0513C12.9699 24.0557 11.3341 23.6682 9.85386 22.9206L2.69232 25.3077L5.0795 18.1462C4.33185 16.666 3.94441 15.0301 3.94873 13.3718C3.9495 11.3889 4.50232 9.44538 5.54528 7.75889C6.58823 6.07241 8.08013 4.70961 9.85386 3.82313C11.3341 3.07548 12.9699 2.68803 14.6282 2.69236H15.2564C17.8752 2.83683 20.3487 3.94219 22.2033 5.79677C24.0579 7.65135 25.1632 10.1248 25.3077 12.7436V13.3718Z" stroke="#6D7D93" stroke-width="2" stroke-linecap="round" stroke-linejoin="round"/>
</svg>
