<svg width="41" height="19" viewBox="0 0 41 19" fill="none" xmlns="http://www.w3.org/2000/svg">
<path d="M2.36783 0.528378C0.959475 0.905743 0.110115 2.36068 0.63981 3.71909C1.91921 7.00012 3.90935 9.97002 6.47949 12.409C9.6901 15.4557 13.6807 17.5553 18.0101 18.4755C22.3395 19.3958 26.8391 19.1009 31.0114 17.6234C34.3513 16.4407 37.3774 14.537 39.8807 12.06C40.9171 11.0345 40.7329 9.35985 39.5998 8.44228C38.4667 7.52472 36.8155 7.71595 35.7478 8.70883C33.8802 10.4455 31.6703 11.7888 29.2489 12.6462C25.9945 13.7987 22.4848 14.0287 19.1079 13.3109C15.731 12.5931 12.6183 10.9555 10.114 8.57901C8.25067 6.81077 6.77817 4.68476 5.77841 2.33864C5.20683 0.997316 3.77618 0.151011 2.36783 0.528378Z" fill="url(#paint0_linear_66_211)" fill-opacity="0.3"/>
<defs>
<linearGradient id="paint0_linear_66_211" x1="23" y1="-29" x2="23" y2="19" gradientUnits="userSpaceOnUse">
<stop stop-color="#037BCB"/>
<stop offset="1" stop-color="#18A0FB"/>
</linearGradient>
</defs>
</svg>
