<svg width="24" height="24" viewBox="0 0 24 24" fill="none" xmlns="http://www.w3.org/2000/svg">
<g opacity="0.4">
<path d="M1.607 18C2.43416 19.4356 4.26852 19.9288 5.70411 19.1017C5.7051 19.1011 5.70603 19.1005 5.70702 19.1L6.152 18.843C6.992 19.5616 7.95753 20.119 8.99999 20.487V21C8.99999 22.6568 10.3431 24 12 24C13.6568 24 15 22.6568 15 21V20.487C16.0426 20.1184 17.0082 19.5604 17.848 18.841L18.295 19.099C19.7309 19.9274 21.5666 19.4349 22.395 17.999C23.2234 16.563 22.7309 14.7274 21.295 13.899L20.851 13.643C21.0508 12.5554 21.0508 11.4405 20.851 10.353L21.295 10.097C22.7309 9.26855 23.2234 7.43292 22.395 5.99695C21.5666 4.56103 19.7309 4.06852 18.295 4.89694L17.85 5.15395C17.0091 4.43616 16.043 3.87984 15 3.513V3C15 1.34316 13.6568 0 12 0C10.3431 0 8.99999 1.34316 8.99999 3V3.513C7.95739 3.88158 6.99182 4.43958 6.152 5.15902L5.705 4.90003C4.26903 4.07156 2.43341 4.56408 1.60499 6C0.776566 7.43592 1.26903 9.27159 2.705 10.1L3.149 10.356C2.94913 11.4435 2.94913 12.5584 3.149 13.646L2.705 13.902C1.27302 14.7326 0.782144 16.5647 1.607 18ZM12 8.00002C14.2091 8.00002 16 9.79088 16 12C16 14.2091 14.2091 16 12 16C9.79086 16 8 14.2091 8 12C8 9.79088 9.79086 8.00002 12 8.00002Z" fill="black"/>
</g>
</svg>
