<svg width="26" height="25" viewBox="0 0 26 25" fill="none" xmlns="http://www.w3.org/2000/svg">
<g id="iconspace_Wallet_25px" opacity="1">
<path id="Combined Shape" fill-rule="evenodd" clip-rule="evenodd" d="M5 7H19.5V4.5C19.5 3.67157 18.8284 3 18 3C17.9383 3 17.8767 3.00381 17.8154 3.0114L4.66959 4.64132C3.42758 4.80692 2.5 5.86638 2.5 7.11939V8.05051C3.13526 7.40223 4.02066 7 5 7ZM21 8H5C4.31814 8 3.68214 8.27292 3.21424 8.75041L2.5 9.47928V20.5C2.5 21.8807 3.61929 23 5 23H21C22.3807 23 23.5 21.8807 23.5 20.5V19H18C16.067 19 14.5 17.433 14.5 15.5C14.5 13.567 16.067 12 18 12H23.5V10.5C23.5 9.11929 22.3807 8 21 8ZM18 13C16.6193 13 15.5 14.1193 15.5 15.5C15.5 16.8807 16.6193 18 18 18H23.5V13H18Z" fill="#2E2E2E"/>
</g>
</svg>
